<svg width="7746" height="2070" viewBox="0 0 7746 2070" fill="none" xmlns="http://www.w3.org/2000/svg">
<rect width="7746" height="2070" fill="black"/>
<path d="M4629.59 984.659C4629.7 986.042 4631.96 1007.16 4632.82 1022.2C4633.47 1032.62 4632.82 1048.94 4632.82 1049.86C4633.14 1049.86 4636.05 1052.08 4636.05 1052.08C4789.61 1159.98 4952.54 1307.27 4980.61 1415.45C4988.46 1445.43 4986.63 1472.45 4972.86 1495.51C4956.52 1522.53 4925.65 1541.9 4883.18 1554.35C4663.15 1618.91 4138.45 1495.14 3710.23 1313.73C3404.27 1184.05 3135.74 1029.57 2954 878.505C2785.16 738.043 2739.45 628.569 2783.01 562.442C2799.68 537.448 2828.17 518.91 2866.46 506.275C3006.16 459.516 3273.82 492.257 3537.41 559.675C3412.66 639.544 3325.77 747.265 3285.55 854.987L3285.44 855.633C3285.42 855.819 3285.38 856.003 3285.33 856.186C3272.96 954.869 3439.55 1083.99 3607.95 1155.92C3607.74 1155.37 3616.99 1158.88 3616.99 1158.32C3616.77 1157.77 3615.37 1148.27 3615.16 1147.9C3575.8 902.576 3792.39 535.511 4020.05 454.997C4034.68 449.832 4047.37 446.696 4049.09 446.235L4019.73 443.745C4011.77 443.192 4003.81 442.546 3995.21 442.362C3985.47 441.902 3975.71 441.594 3965.96 441.439C3837.54 439.268 3710.95 467.75 3600.32 523.706C3160.48 394.219 2838.39 379.001 2703.64 417.552C2650.19 432.954 2614.06 456.103 2596.1 486.815C2577.39 519.095 2577.28 559.675 2595.89 607.264C2657.18 764.42 2924.75 979.125 3263.82 1169.76C3312.97 1391.75 3545.04 1619.37 3877.13 1649.71L3892.4 1651.09C3894.19 1650.96 3895.99 1650.96 3897.78 1651.09C3891.65 1646.95 3885.45 1642.89 3879.17 1638.92C3776.47 1571.04 3684.2 1459.17 3652.58 1362.24L3672.48 1370.81L3687.86 1377.27C4223.95 1604.61 4786.39 1720.36 5035.35 1649.06C5091.16 1633.02 5132.13 1610.51 5150.95 1578.23C5168.91 1547.34 5165.9 1506.3 5147.83 1460.37C5100.95 1340.47 4900.06 1157.49 4645.08 994.435C4639.95 991.065 4634.75 987.775 4629.49 984.566" fill="#7C7C7C"/>
<path d="M622.15 1306.98C565.15 1306.98 519.723 1297.75 485.869 1279.29C452.649 1260.83 428.866 1236.41 414.522 1206.04L516.075 1132.78C531.079 1159.58 550.46 1179.54 574.22 1192.64C598.828 1205.14 627.599 1211.4 660.533 1211.4C698.533 1211.4 730.575 1203.36 756.659 1187.28C782.744 1171.2 801.28 1147.97 812.269 1117.6C821.319 1092.59 820.506 1073.83 809.831 1061.32C799.371 1048.22 777.061 1038.99 742.9 1033.63L676.479 1022.91C618.708 1012.78 582.55 991.937 568.003 960.372C553.672 928.212 554.371 890.395 570.1 846.919C591.647 787.364 628.714 741.804 681.3 710.24C734.102 678.08 796.92 662 869.754 662C921.687 662 963.536 669.742 995.3 685.227C1027.7 700.711 1050.45 721.853 1063.55 748.653L963.9 821.906C953.277 802.253 937.663 786.768 917.057 775.453C896.666 763.542 869.687 757.586 836.121 757.586C763.921 757.586 717.694 785.577 697.439 841.559C688.821 865.382 689.849 883.546 700.524 896.053C711.199 908.559 733.826 917.79 768.405 923.746L833.553 935.359C887.523 945.483 923.055 965.434 940.148 995.212C957.241 1024.99 957.385 1063.11 940.578 1109.56C930.02 1138.74 914.941 1165.54 895.34 1189.96C875.954 1213.78 852.579 1234.62 825.215 1252.49C798.067 1269.76 767.252 1283.16 732.771 1292.69C698.924 1302.22 662.05 1306.98 622.15 1306.98Z" fill="white"/>
<path d="M1199.38 1306.98C1156.31 1306.98 1121.53 1299.84 1095.04 1285.54C1068.76 1270.66 1050.12 1249.51 1039.13 1222.12C1028.78 1194.72 1025.75 1161.07 1030.06 1121.17C1034.99 1081.27 1046.73 1035.71 1065.26 984.492C1083.57 933.87 1104.7 888.608 1128.63 848.706C1153.42 808.208 1180.9 774.262 1211.08 746.866C1241.89 719.471 1275.71 698.627 1312.55 684.333C1349.61 669.444 1389.67 662 1432.73 662C1518.87 662 1571.96 690.289 1592.03 746.866C1612.09 803.444 1603.7 882.653 1566.86 984.492C1530.01 1086.33 1481.09 1165.54 1420.08 1222.12C1359.08 1278.7 1285.51 1306.98 1199.38 1306.98ZM1233.96 1211.4C1256.13 1211.4 1276.21 1207.53 1294.21 1199.78C1312.43 1191.45 1328.66 1179.83 1342.92 1164.94C1357.8 1150.06 1371.03 1131.89 1382.58 1110.45C1394.99 1088.42 1406.04 1064 1415.74 1037.2L1454.2 930.892C1473.59 877.293 1480.02 835.008 1473.49 804.04C1467.6 773.071 1442.48 757.586 1398.15 757.586C1353.82 757.586 1317.18 773.071 1288.24 804.04C1259.94 835.008 1236.09 877.293 1216.7 930.892L1177.91 1038.09C1158.52 1091.69 1151.77 1133.98 1157.67 1164.94C1164.2 1195.91 1189.63 1211.4 1233.96 1211.4Z" fill="white"/>
<path d="M1582.89 1296.26L1808.48 672.72H1932.93L1742.24 1199.78H2035.79L2000.89 1296.26H1582.89Z" fill="white"/>
<path d="M2484.06 1296.26L2494.72 1138.14H2298.07L2195.26 1296.26H2069.86L2481.66 672.72H2654.56L2616.12 1296.26H2484.06ZM2527.37 787.96H2519.77L2354.5 1042.56H2508.41L2527.37 787.96Z" fill="white"/>
<path d="M2827.59 1296.26H2703.14L2928.74 672.72H3180.49C3245.09 672.72 3288.24 689.991 3309.94 724.533C3331.65 759.075 3331.73 806.124 3310.18 865.679C3293.59 911.537 3268.18 950.248 3233.96 981.812C3200.59 1012.78 3161.5 1032.43 3116.68 1040.77L3165.79 1296.26H3028.99L2990.23 1054.17H2915.18L2827.59 1296.26ZM3049.8 963.052C3083.37 963.052 3109.7 956.799 3128.79 944.292C3148.09 931.19 3162.81 910.644 3172.94 882.653L3185.22 848.706C3195.35 820.715 3195.39 800.466 3185.35 787.96C3175.52 774.857 3153.82 768.306 3120.26 768.306H3018.61L2948.15 963.052H3049.8Z" fill="white"/>
<path d="M4039.92 1306.98C3982.92 1306.98 3937.5 1297.75 3903.64 1279.29C3870.42 1260.83 3846.64 1236.41 3832.3 1206.04L3933.85 1132.78C3948.85 1159.58 3968.23 1179.54 3991.99 1192.64C4016.6 1205.14 4045.37 1211.4 4078.31 1211.4C4116.31 1211.4 4148.35 1203.36 4174.43 1187.28C4200.52 1171.2 4219.05 1147.97 4230.04 1117.6C4239.09 1092.59 4238.28 1073.83 4227.6 1061.32C4217.14 1048.22 4194.83 1038.99 4160.67 1033.63L4094.25 1022.91C4036.48 1012.78 4000.32 991.937 3985.78 960.372C3971.45 928.212 3972.14 890.395 3987.87 846.919C4009.42 787.364 4046.49 741.804 4099.07 710.24C4151.88 678.08 4214.69 662 4287.53 662C4339.46 662 4381.31 669.742 4413.07 685.227C4445.47 700.711 4468.22 721.853 4481.33 748.653L4381.67 821.906C4371.05 802.253 4355.44 786.768 4334.83 775.453C4314.44 763.542 4287.46 757.586 4253.89 757.586C4181.69 757.586 4135.47 785.577 4115.21 841.559C4106.59 865.382 4107.62 883.546 4118.3 896.053C4128.97 908.559 4151.6 917.79 4186.18 923.746L4251.33 935.359C4305.3 945.483 4340.83 965.434 4357.92 995.212C4375.01 1024.99 4375.16 1063.11 4358.35 1109.56C4347.79 1138.74 4332.71 1165.54 4313.11 1189.96C4293.73 1213.78 4270.35 1234.62 4242.99 1252.49C4215.84 1269.76 4185.03 1283.16 4150.54 1292.69C4116.7 1302.22 4079.82 1306.98 4039.92 1306.98Z" fill="white"/>
<path d="M4559.28 1296.26L4641.7 1068.47L4569.23 672.72H4707.93L4730.58 822.799L4744.21 950.546H4750.86L4857.88 822.799L4990.08 672.72H5124.03L4765.2 1068.47L4682.78 1296.26H4559.28Z" fill="white"/>
<path d="M5179.18 1306.98C5122.18 1306.98 5076.75 1297.75 5042.9 1279.29C5009.68 1260.83 4985.9 1236.41 4971.55 1206.04L5073.11 1132.78C5088.11 1159.58 5107.49 1179.54 5131.25 1192.64C5155.86 1205.14 5184.63 1211.4 5217.56 1211.4C5255.56 1211.4 5287.61 1203.36 5313.69 1187.28C5339.77 1171.2 5358.31 1147.97 5369.3 1117.6C5378.35 1092.59 5377.54 1073.83 5366.86 1061.32C5356.4 1048.22 5334.09 1038.99 5299.93 1033.63L5233.51 1022.91C5175.74 1012.78 5139.58 991.937 5125.03 960.372C5110.7 928.212 5111.4 890.395 5127.13 846.919C5148.68 787.364 5185.75 741.804 5238.33 710.24C5291.13 678.08 5353.95 662 5426.78 662C5478.72 662 5520.57 669.742 5552.33 685.227C5584.73 700.711 5607.48 721.853 5620.58 748.653L5520.93 821.906C5510.31 802.253 5494.69 786.768 5474.09 775.453C5453.7 763.542 5426.72 757.586 5393.15 757.586C5320.95 757.586 5274.72 785.577 5254.47 841.559C5245.85 865.382 5246.88 883.546 5257.56 896.053C5268.23 908.559 5290.86 917.79 5325.44 923.746L5390.58 935.359C5444.55 945.483 5480.09 965.434 5497.18 995.212C5514.27 1024.99 5514.42 1063.11 5497.61 1109.56C5487.05 1138.74 5471.97 1165.54 5452.37 1189.96C5432.99 1213.78 5409.61 1234.62 5382.25 1252.49C5355.1 1269.76 5324.28 1283.16 5289.8 1292.69C5255.95 1302.22 5219.08 1306.98 5179.18 1306.98Z" fill="white"/>
<path d="M6012.73 769.2L5822.04 1296.26H5698.54L5889.23 769.2H5689.73L5724.64 672.72H6247.14L6212.23 769.2H6012.73Z" fill="white"/>
<path d="M6123.77 1296.26L6349.36 672.72H6768.31L6733.41 769.2H6438.91L6380.08 931.786H6664.13L6629.23 1028.27H6345.18L6283.12 1199.78H6577.62L6542.72 1296.26H6123.77Z" fill="white"/>
<path d="M7135.04 1007.72L7206.03 827.266H7197.48L6953.2 1147.97L6940.98 827.266H6932.43L6872.84 1007.72L6768.45 1296.26H6660.15L6885.74 672.72H7033.94L7043.03 902.306H7049.68L7225.84 672.72H7364.54L7138.95 1296.26H7030.65L7135.04 1007.72Z" fill="white"/>
</svg>
