<svg width="2581" height="1271" viewBox="0 0 2581 1271" fill="none" xmlns="http://www.w3.org/2000/svg">
<path d="M2047.59 585.659C2047.7 587.042 2049.96 608.162 2050.82 623.195C2051.47 633.617 2050.82 649.941 2050.82 650.863C2051.14 650.863 2054.05 653.077 2054.05 653.077C2207.61 760.983 2370.54 908.27 2398.61 1016.45C2406.46 1046.43 2404.63 1073.45 2390.86 1096.51C2374.52 1123.53 2343.65 1142.9 2301.18 1155.35C2081.15 1219.91 1556.45 1096.14 1128.23 914.726C822.272 785.054 553.742 630.573 371.998 479.505C203.159 339.043 157.454 229.569 201.008 163.442C217.677 138.448 246.175 119.91 284.46 107.275C424.155 60.5158 691.825 93.2565 955.408 160.675C830.66 240.544 743.767 348.265 703.547 455.987L703.439 456.633C703.416 456.819 703.38 457.003 703.332 457.186C690.964 555.869 857.545 684.988 1025.95 756.925C1025.74 756.372 1034.99 759.876 1034.99 759.323C1034.77 758.769 1033.37 749.27 1033.16 748.901C993.8 503.576 1210.39 136.511 1438.05 55.9967C1452.68 50.8319 1465.37 47.6962 1467.09 47.235L1437.73 44.7449C1429.77 44.1915 1421.81 43.546 1413.21 43.3615C1403.47 42.9016 1393.71 42.5941 1383.96 42.4392C1255.54 40.268 1128.95 68.7504 1018.32 124.706C578.477 -4.7812 256.391 -19.9987 121.643 18.5523C68.1947 33.9543 32.0609 57.1034 14.1016 87.8151C-4.61056 120.095 -4.7181 160.675 13.8865 208.264C75.1848 365.42 342.747 580.125 681.823 770.759C730.97 992.75 963.043 1220.37 1295.13 1250.71L1310.4 1252.09C1312.19 1251.96 1313.99 1251.96 1315.78 1252.09C1309.65 1247.95 1303.45 1243.89 1297.17 1239.92C1194.47 1172.04 1102.2 1060.17 1070.58 963.238L1090.48 971.815L1105.86 978.271C1641.95 1205.61 2204.39 1321.36 2453.35 1250.06C2509.16 1234.02 2550.13 1211.51 2568.95 1179.23C2586.91 1148.34 2583.9 1107.3 2565.83 1061.37C2518.95 941.472 2318.06 758.493 2063.08 595.435C2057.95 592.065 2052.75 588.775 2047.49 585.566" fill="#6F6F6F"/>
</svg>
