<svg width="448" height="448" viewBox="0 0 448 448" fill="none" xmlns="http://www.w3.org/2000/svg">
<path d="M224.002 144.921C202.998 144.921 182.854 153.251 168.001 168.079C153.149 182.906 144.805 203.017 144.805 223.987C144.805 244.956 153.149 265.067 168.001 279.895C182.854 294.722 202.998 303.053 224.002 303.053C245.007 303.053 265.151 294.722 280.004 279.895C294.856 265.067 303.2 244.956 303.2 223.987C303.2 203.017 294.856 182.906 280.004 168.079C265.151 153.251 245.007 144.921 224.002 144.921Z" fill="white"/>
<path fill-rule="evenodd" clip-rule="evenodd" d="M96.5531 7.03016C181.259 -2.34339 266.742 -2.34339 351.448 7.03016C397.724 12.1877 435.032 48.558 440.466 94.9271C450.511 180.675 450.511 267.299 440.466 353.047C435.032 399.416 397.724 435.786 351.472 440.968C266.759 450.344 181.267 450.344 96.5531 440.968C50.2773 435.786 12.969 399.416 7.53485 353.071C-2.51162 267.315 -2.51162 180.683 7.53485 94.9271C12.969 48.558 50.2773 12.1877 96.5531 7.03016ZM345.843 78.0191C339.38 78.0191 333.182 80.5823 328.612 85.1446C324.042 89.707 321.475 95.8949 321.475 102.347C321.475 108.799 324.042 114.987 328.612 119.55C333.182 124.112 339.38 126.675 345.843 126.675C352.306 126.675 358.504 124.112 363.074 119.55C367.644 114.987 370.212 108.799 370.212 102.347C370.212 95.8949 367.644 89.707 363.074 85.1446C358.504 80.5823 352.306 78.0191 345.843 78.0191ZM108.25 223.987C108.25 193.339 120.445 163.946 142.153 142.275C163.86 120.604 193.302 108.429 224.001 108.429C254.699 108.429 284.141 120.604 305.849 142.275C327.556 163.946 339.751 193.339 339.751 223.987C339.751 254.635 327.556 284.027 305.849 305.699C284.141 327.37 254.699 339.545 224.001 339.545C193.302 339.545 163.86 327.37 142.153 305.699C120.445 284.027 108.25 254.635 108.25 223.987Z" fill="white"/>
</svg>
