<svg width="6991" height="1271" viewBox="0 0 6991 1271" fill="none" xmlns="http://www.w3.org/2000/svg">
<path d="M4251.59 585.659C4251.7 587.042 4253.96 608.162 4254.82 623.195C4255.47 633.617 4254.82 649.941 4254.82 650.863C4255.14 650.863 4258.05 653.077 4258.05 653.077C4411.61 760.983 4574.54 908.27 4602.61 1016.45C4610.46 1046.43 4608.63 1073.45 4594.86 1096.51C4578.52 1123.53 4547.65 1142.9 4505.18 1155.35C4285.15 1219.91 3760.45 1096.14 3332.23 914.726C3026.27 785.054 2757.74 630.573 2576 479.505C2407.16 339.043 2361.45 229.569 2405.01 163.442C2421.68 138.448 2450.17 119.91 2488.46 107.275C2628.16 60.5158 2895.82 93.2565 3159.41 160.675C3034.66 240.544 2947.77 348.265 2907.55 455.987L2907.44 456.633C2907.42 456.819 2907.38 457.003 2907.33 457.186C2894.96 555.869 3061.55 684.988 3229.95 756.925C3229.74 756.372 3238.99 759.876 3238.99 759.323C3238.77 758.769 3237.37 749.27 3237.16 748.901C3197.8 503.576 3414.39 136.511 3642.05 55.9967C3656.68 50.8319 3669.37 47.6962 3671.09 47.235L3641.73 44.7449C3633.77 44.1915 3625.81 43.546 3617.21 43.3615C3607.47 42.9016 3597.71 42.5941 3587.96 42.4392C3459.54 40.268 3332.95 68.7504 3222.32 124.706C2782.48 -4.7812 2460.39 -19.9987 2325.64 18.5523C2272.19 33.9543 2236.06 57.1034 2218.1 87.8151C2199.39 120.095 2199.28 160.675 2217.89 208.264C2279.18 365.42 2546.75 580.125 2885.82 770.759C2934.97 992.75 3167.04 1220.37 3499.13 1250.71L3514.4 1252.09C3516.19 1251.96 3517.99 1251.96 3519.78 1252.09C3513.65 1247.95 3507.45 1243.89 3501.17 1239.92C3398.47 1172.04 3306.2 1060.17 3274.58 963.238L3294.48 971.815L3309.86 978.271C3845.95 1205.61 4408.39 1321.36 4657.35 1250.06C4713.16 1234.02 4754.13 1211.51 4772.95 1179.23C4790.91 1148.34 4787.9 1107.3 4769.83 1061.37C4722.95 941.472 4522.06 758.493 4267.08 595.435C4261.95 592.065 4256.75 588.775 4251.49 585.566" fill="#7C7C7C"/>
<path d="M244.15 907.984C187.15 907.984 141.723 898.753 107.869 880.291C74.6486 861.829 50.8662 837.411 36.5219 807.038L138.075 733.785C153.079 760.585 172.46 780.536 196.22 793.638C220.828 806.145 249.599 812.398 282.533 812.398C320.533 812.398 352.575 804.358 378.659 788.278C404.744 772.198 423.28 748.972 434.269 718.598C443.319 693.585 442.506 674.825 431.831 662.319C421.371 649.216 399.061 639.985 364.9 634.625L298.479 623.905C240.708 613.781 204.55 592.937 190.003 561.372C175.672 529.212 176.371 491.395 192.1 447.919C213.647 388.364 250.714 342.804 303.3 311.24C356.102 279.08 418.92 263 491.754 263C543.687 263 585.536 270.742 617.3 286.227C649.698 301.711 672.449 322.853 685.553 349.653L585.9 422.906C575.277 403.253 559.663 387.768 539.057 376.453C518.666 364.542 491.687 358.586 458.121 358.586C385.921 358.586 339.694 386.577 319.439 442.559C310.821 466.382 311.849 484.546 322.524 497.053C333.199 509.559 355.826 518.79 390.405 524.746L455.553 536.359C509.523 546.483 545.055 566.434 562.148 596.212C579.241 625.99 579.385 664.105 562.578 710.558C552.02 739.741 536.941 766.541 517.34 790.958C497.954 814.78 474.579 835.625 447.215 853.491C420.067 870.762 389.252 884.162 354.771 893.691C320.924 903.22 284.05 907.984 244.15 907.984Z" fill="white"/>
<path d="M821.379 907.984C778.312 907.984 743.531 900.838 717.036 886.544C690.756 871.656 672.121 850.514 661.133 823.118C650.778 795.723 647.752 762.074 652.055 722.172C656.992 682.27 668.725 636.71 687.256 585.492C705.57 534.87 726.696 489.608 750.633 449.706C775.418 409.208 802.9 375.262 833.078 347.866C863.89 320.471 897.714 299.627 934.552 285.333C971.606 270.444 1011.67 263 1054.73 263C1140.87 263 1193.96 291.289 1214.03 347.866C1234.09 404.444 1225.7 483.653 1188.86 585.492C1152.01 687.332 1103.09 766.54 1042.08 823.118C981.08 879.696 907.512 907.984 821.379 907.984ZM855.962 812.398C878.128 812.398 898.212 808.527 916.213 800.785C934.43 792.447 950.665 780.834 964.918 765.945C979.805 751.056 993.027 732.892 1004.58 711.452C1016.99 689.416 1028.04 664.999 1037.74 638.199L1076.2 531.892C1095.59 478.293 1102.02 436.008 1095.49 405.04C1089.6 374.071 1064.48 358.586 1020.15 358.586C975.816 358.586 939.181 374.071 910.243 405.04C881.938 436.008 858.09 478.293 838.698 531.892L799.913 639.092C780.521 692.692 773.773 734.976 779.668 765.945C786.197 796.914 811.628 812.398 855.962 812.398Z" fill="white"/>
<path d="M1204.89 897.264L1430.48 273.72H1554.93L1364.24 800.785H1657.79L1622.89 897.264H1204.89Z" fill="white"/>
<path d="M2106.06 897.264L2116.72 739.145H1920.07L1817.26 897.264H1691.86L2103.66 273.72H2276.56L2238.12 897.264H2106.06ZM2149.37 388.96H2141.77L1976.5 643.559H2130.41L2149.37 388.96Z" fill="white"/>
<path d="M2449.59 897.264H2325.14L2550.74 273.72H2802.49C2867.09 273.72 2910.24 290.991 2931.94 325.533C2953.65 360.075 2953.73 407.124 2932.18 466.679C2915.59 512.537 2890.18 551.248 2855.96 582.812C2822.59 613.781 2783.5 633.434 2738.68 641.772L2787.79 897.264H2650.99L2612.23 655.172H2537.18L2449.59 897.264ZM2671.8 564.052C2705.37 564.052 2731.69 557.799 2750.79 545.292C2770.09 532.19 2784.81 511.644 2794.94 483.653L2807.22 449.706C2817.35 421.715 2817.39 401.466 2807.35 388.96C2797.52 375.857 2775.82 369.306 2742.26 369.306H2640.61L2570.15 564.052H2671.8Z" fill="white"/>
<path d="M3661.92 907.984C3604.92 907.984 3559.5 898.753 3525.64 880.291C3492.42 861.829 3468.64 837.411 3454.3 807.038L3555.85 733.785C3570.85 760.585 3590.23 780.536 3613.99 793.638C3638.6 806.145 3667.37 812.398 3700.31 812.398C3738.31 812.398 3770.35 804.358 3796.43 788.278C3822.52 772.198 3841.05 748.972 3852.04 718.598C3861.09 693.585 3860.28 674.825 3849.6 662.319C3839.14 649.216 3816.83 639.985 3782.67 634.625L3716.25 623.905C3658.48 613.781 3622.32 592.937 3607.78 561.372C3593.45 529.212 3594.14 491.395 3609.87 447.919C3631.42 388.364 3668.49 342.804 3721.07 311.24C3773.88 279.08 3836.69 263 3909.53 263C3961.46 263 4003.31 270.742 4035.07 286.227C4067.47 301.711 4090.22 322.853 4103.33 349.653L4003.67 422.906C3993.05 403.253 3977.44 387.768 3956.83 376.453C3936.44 364.542 3909.46 358.586 3875.89 358.586C3803.69 358.586 3757.47 386.577 3737.21 442.559C3728.59 466.382 3729.62 484.546 3740.3 497.053C3750.97 509.559 3773.6 518.79 3808.18 524.746L3873.33 536.359C3927.3 546.483 3962.83 566.434 3979.92 596.212C3997.01 625.99 3997.16 664.105 3980.35 710.558C3969.79 739.741 3954.71 766.541 3935.11 790.958C3915.73 814.78 3892.35 835.625 3864.99 853.491C3837.84 870.762 3807.03 884.162 3772.54 893.691C3738.7 903.22 3701.82 907.984 3661.92 907.984Z" fill="white"/>
<path d="M4181.28 897.264L4263.7 669.465L4191.23 273.72H4329.93L4352.58 423.799L4366.21 551.546H4372.86L4479.88 423.799L4612.08 273.72H4746.03L4387.2 669.465L4304.78 897.264H4181.28Z" fill="white"/>
<path d="M4801.18 907.984C4744.18 907.984 4698.75 898.753 4664.9 880.291C4631.68 861.829 4607.9 837.411 4593.55 807.038L4695.11 733.785C4710.11 760.585 4729.49 780.536 4753.25 793.638C4777.86 806.145 4806.63 812.398 4839.56 812.398C4877.56 812.398 4909.61 804.358 4935.69 788.278C4961.77 772.198 4980.31 748.972 4991.3 718.598C5000.35 693.585 4999.54 674.825 4988.86 662.319C4978.4 649.216 4956.09 639.985 4921.93 634.625L4855.51 623.905C4797.74 613.781 4761.58 592.937 4747.03 561.372C4732.7 529.212 4733.4 491.395 4749.13 447.919C4770.68 388.364 4807.75 342.804 4860.33 311.24C4913.13 279.08 4975.95 263 5048.78 263C5100.72 263 5142.57 270.742 5174.33 286.227C5206.73 301.711 5229.48 322.853 5242.58 349.653L5142.93 422.906C5132.31 403.253 5116.69 387.768 5096.09 376.453C5075.7 364.542 5048.72 358.586 5015.15 358.586C4942.95 358.586 4896.72 386.577 4876.47 442.559C4867.85 466.382 4868.88 484.546 4879.56 497.053C4890.23 509.559 4912.86 518.79 4947.44 524.746L5012.58 536.359C5066.55 546.483 5102.09 566.434 5119.18 596.212C5136.27 625.99 5136.42 664.105 5119.61 710.558C5109.05 739.741 5093.97 766.541 5074.37 790.958C5054.99 814.78 5031.61 835.625 5004.25 853.491C4977.1 870.762 4946.28 884.162 4911.8 893.691C4877.95 903.22 4841.08 907.984 4801.18 907.984Z" fill="white"/>
<path d="M5634.73 370.2L5444.04 897.264H5320.54L5511.23 370.2H5311.73L5346.64 273.72H5869.14L5834.23 370.2H5634.73Z" fill="white"/>
<path d="M5745.77 897.264L5971.36 273.72H6390.31L6355.41 370.2H6060.91L6002.08 532.786H6286.13L6251.23 629.265H5967.18L5905.12 800.785H6199.62L6164.72 897.264H5745.77Z" fill="white"/>
<path d="M6757.04 608.719L6828.03 428.266H6819.48L6575.2 748.972L6562.98 428.266H6554.43L6494.84 608.719L6390.45 897.264H6282.15L6507.74 273.72H6655.94L6665.03 503.306H6671.68L6847.84 273.72H6986.54L6760.95 897.264H6652.65L6757.04 608.719Z" fill="white"/>
</svg>
