<svg width="134" height="184" viewBox="0 0 134 184" fill="none" xmlns="http://www.w3.org/2000/svg">
<path d="M90.6963 8.29688L42.6992 56.4602L90.6963 104.624" stroke="white" stroke-width="16" stroke-miterlimit="10" stroke-linecap="round" stroke-linejoin="round"/>
<path d="M9.792 170.888H12.48V182.6H9.792V170.888ZM22.656 154.568H25.28V183.528H22.656V154.568ZM1.792 172.552L1.44 170.312C7.168 170.312 14.304 170.28 20.64 169.544L20.8 171.528C14.304 172.488 7.392 172.584 1.792 172.552ZM4.16 164.488H18.464V166.664H4.16V164.488ZM4.16 156.168H18.112V158.344H6.816V165.704H4.16V156.168ZM31.0375 177.736H57.2455V179.944H31.0375V177.736ZM42.7495 171.528H45.4055V178.664H42.7495V171.528ZM34.2055 156.712H54.0135V165.48H36.9255V171.272H34.3015V163.336H51.3895V158.856H34.2055V156.712ZM34.3015 170.152H54.6855V172.328H34.3015V170.152ZM89.027 154.536H91.715V183.496H89.027V154.536ZM90.979 166.28H96.323V168.488H90.979V166.28ZM81.635 157.672H84.227C84.227 165.896 80.451 173.32 71.107 178.024L69.635 175.976C77.635 171.912 81.635 165.736 81.635 158.088V157.672ZM70.979 157.672H83.011V159.848H70.979V157.672ZM119.969 154.568H122.625V183.496H119.969V154.568ZM111.489 157.672H114.113C114.113 166.056 110.337 173.384 100.673 178.12L99.2645 175.976C107.617 171.944 111.489 165.8 111.489 158.12V157.672ZM100.577 157.672H112.641V159.848H100.577V157.672Z" fill="white"/>
</svg>
